HIERARCHY
ROOT root
{
	OFFSET 0.000000 0.000000 0.000000
	CHANNELS 6 Xposition Yposition Zposition Zrotation Yrotation Xrotation
	JOINT lhip
	{
		OFFSET 0.058581 -0.082280 -0.017664
		CHANNELS 3 Zrotation Yrotation Xrotation
		JOINT lknee
		{
			OFFSET 0.043451 -0.386469 0.008037
			CHANNELS 3 Zrotation Yrotation Xrotation
			JOINT lankle
			{
				OFFSET -0.014790 -0.426874 -0.037428
				CHANNELS 3 Zrotation Yrotation Xrotation
				JOINT ltoe
				{
					OFFSET 0.041054 -0.060286 0.122042
					CHANNELS 3 Zrotation Yrotation Xrotation
					End Site
					{
						OFFSET 0.000000 0.000000 0.000000
					}
				}
			}
		}
	}
	JOINT rhip
	{
		OFFSET -0.060310 -0.090513 -0.013543
		CHANNELS 3 Zrotation Yrotation Xrotation
		JOINT rknee
		{
			OFFSET -0.043257 -0.383688 -0.004843
			CHANNELS 3 Zrotation Yrotation Xrotation
			JOINT rankle
			{
				OFFSET 0.019056 -0.420046 -0.034562
				CHANNELS 3 Zrotation Yrotation Xrotation
				JOINT rtoe
				{
					OFFSET -0.034840 -0.062106 0.130323
					CHANNELS 3 Zrotation Yrotation Xrotation
					End Site
					{
						OFFSET 0.000000 0.000000 0.000000
					}
				}
			}
		}
	}
	JOINT lowerback
	{
		OFFSET 0.004439 0.124404 -0.038385
		CHANNELS 3 Zrotation Yrotation Xrotation
		JOINT upperback
		{
			OFFSET 0.004488 0.137956 0.026820
			CHANNELS 3 Zrotation Yrotation Xrotation
			JOINT chest
			{
				OFFSET -0.002265 0.056032 0.002855
				CHANNELS 3 Zrotation Yrotation Xrotation
				JOINT lowerneck
				{
					OFFSET -0.013390 0.211636 -0.033468
					CHANNELS 3 Zrotation Yrotation Xrotation
					JOINT upperneck
					{
						OFFSET 0.010113 0.088937 0.050410
						CHANNELS 3 Zrotation Yrotation Xrotation
						End Site
						{
							OFFSET 0.000000 0.000000 0.000000
						}
					}
				}
				JOINT lclavicle
				{
					OFFSET 0.071702 0.114000 -0.018898
					CHANNELS 3 Zrotation Yrotation Xrotation
					JOINT lshoulder
					{
						OFFSET 0.122921 0.045205 -0.019046
						CHANNELS 3 Zrotation Yrotation Xrotation
						JOINT lelbow
						{
							OFFSET 0.255332 -0.015649 -0.022946
							CHANNELS 3 Zrotation Yrotation Xrotation
							JOINT lwrist
							{
								OFFSET 0.265709 0.012698 -0.007375
								CHANNELS 3 Zrotation Yrotation Xrotation
								End Site
								{
									OFFSET 0.000000 0.000000 0.000000
								}
							}
						}
					}
				}
				JOINT rclavicle
				{
					OFFSET -0.082954 0.112472 -0.023707
					CHANNELS 3 Zrotation Yrotation Xrotation
					JOINT rshoulder
					{
						OFFSET -0.113228 0.046853 -0.008472
						CHANNELS 3 Zrotation Yrotation Xrotation
						JOINT relbow
						{
							OFFSET -0.260127 -0.014369 -0.031269
							CHANNELS 3 Zrotation Yrotation Xrotation
							JOINT rwrist
							{
								OFFSET -0.269108 0.006794 -0.006027
								CHANNELS 3 Zrotation Yrotation Xrotation
								End Site
								{
									OFFSET 0.000000 0.000000 0.000000
								}
							}
						}
					}
				}
			}
		}
	}
}
MOTION
Frames: 17
Frame Time: 0.033333
2.196748 0.104765 1.001982 -93.982507 -2.724274 95.369999 -3.914685 -6.680105 -18.985902 -5.554544 -2.826894 16.648673 8.490635 6.525075 -7.767898 0.000000 -0.000000 0.000000 -4.814477 0.414198 -12.518988 2.701442 2.201243 55.207530 4.744424 -13.212815 13.241428 0.000000 -0.000000 0.000000 -2.262340 1.768634 8.789657 7.183493 -4.995621 2.809264 0.599078 -2.959518 4.801368 -0.085986 5.922890 -2.596511 -5.095738 5.104940 5.596184 -24.479586 13.489388 0.869106 -53.072686 5.584556 3.353442 4.269456 -34.260473 13.407462 -3.211299 -4.037085 -6.386355 29.326345 -13.862072 -5.918797 47.730311 1.653726 1.055645 -62.996409 33.248162 -68.318776 1.753491 8.337250 -29.230761 
2.162181 0.099236 1.005113 -93.092802 -2.594413 94.294446 -5.156321 -6.019741 -14.921091 -5.414720 -5.149754 15.621204 8.613534 6.840419 -9.445816 0.000000 -0.000000 0.000000 -4.255062 0.655809 -16.267995 1.715718 0.414197 60.019222 4.156461 -14.195169 8.566543 0.000000 -0.000000 0.000000 -1.807232 0.495548 9.621792 7.010999 -4.919270 2.464974 0.313891 -3.532268 4.976430 -0.066214 6.461545 -1.665937 -5.940999 5.204709 5.334492 -24.515352 12.814749 0.984520 -52.754540 5.262912 2.984309 4.719629 -33.195001 12.830299 -3.897283 -3.992947 -6.458098 28.762144 -13.765055 -6.833383 46.006782 1.038735 1.108026 -68.130189 35.455121 -69.693771 1.938862 8.843503 -27.380338 
2.130682 0.094183 1.007415 -92.216633 -2.559506 93.567541 -5.872036 -5.880938 -11.502183 -5.445207 -6.188294 14.866113 8.690891 7.574693 -10.797051 0.000000 -0.000000 0.000000 -4.043880 1.010756 -20.270077 1.261138 -1.459009 62.226106 3.960430 -15.240656 4.219964 0.000000 -0.000000 0.000000 -1.322516 -0.492045 10.472721 6.773371 -4.875941 1.744472 0.022332 -4.030891 5.252793 -0.015173 7.318101 -1.510706 -6.614982 5.920032 6.131338 -24.434577 12.304026 0.631062 -52.560397 4.557332 2.891190 5.617943 -33.572361 11.721204 -3.093634 -3.606699 -5.169231 28.348657 -13.390978 -7.880057 45.147215 1.860406 1.351174 -74.442933 36.646245 -73.412280 3.225018 10.048655 -26.071138 
2.091688 0.088947 1.008029 -92.091100 -2.262891 93.224731 -6.171723 -4.339567 -7.410489 -5.424942 -7.160987 12.618892 8.900626 7.234638 -12.186172 0.000000 -0.000000 0.000000 -3.545428 1.842643 -25.376402 1.157806 -3.165364 61.183919 3.318089 -14.678573 -0.567497 0.000000 -0.000000 0.000000 -0.846770 -1.845481 10.758163 6.634399 -4.371870 1.502887 -0.298006 -3.951993 5.277672 0.339693 8.530422 -1.199009 -7.344222 5.256092 7.067672 -24.213584 11.742435 0.213695 -52.582380 3.524250 2.788323 6.898797 -35.078281 10.878445 -3.652916 -3.406574 -4.517243 28.047347 -12.830085 -8.172510 44.220866 4.160374 1.723275 -84.729353 39.939903 -75.375846 6.113070 10.980409 -18.978088 
2.068190 0.086143 1.007726 -91.865683 -1.789093 92.380932 -6.160667 -2.166420 -4.585433 -5.143603 -8.317635 11.812270 8.821402 6.257894 -13.254534 0.000000 -0.000000 0.000000 -2.778860 1.843459 -27.205510 -0.211068 -4.426559 58.498885 3.524020 -13.049666 -2.494755 0.000000 -0.000000 0.000000 0.008026 -2.635969 11.937572 6.337823 -3.991125 1.716275 -0.339734 -4.026415 4.819782 0.789836 9.586451 -1.466222 -8.411883 4.894602 7.370425 -25.020039 11.721544 0.245631 -51.569524 1.804336 4.270915 8.181665 -36.103156 9.671168 -5.122921 -3.961417 -6.035252 28.586713 -13.263330 -8.858694 43.320547 7.084874 3.866373 -90.901268 41.982167 -74.645213 7.045589 11.135429 -13.951231 
2.038524 0.082804 1.005359 -91.642659 -1.463203 92.121375 -6.366086 -1.439752 -1.771543 -4.742725 -8.807940 10.493502 8.666644 6.613314 -14.312655 0.000000 -0.000000 0.000000 -2.800394 2.401344 -30.014579 -0.175348 -6.612425 52.804421 4.912613 -12.060458 -5.806469 0.000000 -0.000000 0.000000 0.620372 -3.384951 12.723743 6.008218 -3.682348 1.657069 -0.346162 -3.787610 4.665517 0.959554 10.299314 -2.135058 -8.400877 4.201600 8.018738 -24.457396 10.316356 -0.156496 -51.880762 0.357252 4.548673 8.939519 -37.386637 8.339030 -5.203310 -4.341139 -6.249283 28.413181 -11.736903 -9.098497 42.822590 9.051313 5.063924 -99.877490 45.781518 -76.975640 9.377209 11.067770 -5.539534 
2.007695 0.079975 1.000599 -90.811133 -1.038226 92.550408 -6.390005 -1.167941 0.078351 -4.328917 -8.927342 9.904622 8.686778 6.723628 -15.704196 0.000000 -0.000000 0.000000 -2.706752 2.162635 -32.382622 0.087277 -8.771727 44.697014 5.332052 -11.371762 -6.272653 0.000000 -0.000000 0.000000 1.523795 -3.781502 12.685425 5.784207 -3.726299 1.266498 -0.160112 -3.773012 4.487589 0.706197 10.059799 -2.248364 -8.019690 3.996800 8.140324 -24.159209 8.758241 -0.101302 -52.189876 -1.440859 5.066807 9.639309 -38.683814 7.288957 -3.690043 -4.862088 -6.675042 27.803008 -9.989681 -8.404108 42.144879 10.564922 6.593109 -107.647953 50.247424 -79.357260 9.431404 10.803283 1.737800 
1.977144 0.077961 0.994639 -90.000535 -0.797303 92.970738 -6.296217 -1.136577 1.888575 -4.091510 -9.339770 9.563336 9.063744 6.769229 -17.626561 0.000000 -0.000000 0.000000 -2.464074 1.562968 -33.764383 0.492602 -10.253033 34.535122 6.223330 -10.949118 -4.256950 0.000000 -0.000000 0.000000 2.267311 -4.010945 12.834108 5.346860 -3.611042 0.988423 0.091455 -3.812656 4.149726 0.532925 9.601169 -2.686820 -7.388560 3.821598 8.503222 -23.780072 6.939033 -0.075479 -52.236368 -3.363506 5.870703 9.948775 -39.944103 6.684928 -1.698610 -5.262727 -6.698474 27.182589 -7.814277 -7.293227 41.778484 11.986405 8.656069 -111.993999 55.481392 -79.984354 8.182723 10.336771 8.656278 
1.944866 0.076949 0.987312 -89.177215 -0.916832 93.425963 -6.287037 -0.746341 3.647787 -4.303606 -9.690635 9.400960 9.098863 6.361661 -18.494966 0.000000 -0.000000 0.000000 -2.155318 0.702227 -34.207597 0.851643 -11.163049 23.152954 6.644112 -10.461201 0.050629 0.000000 -0.000000 0.000000 2.553737 -4.078051 12.861845 4.798286 -3.468124 0.711547 0.376270 -3.807622 3.624238 0.376218 8.853479 -2.624296 -6.364381 3.743236 8.807140 -23.059495 4.829320 0.468842 -52.431383 -5.355140 6.852305 10.532343 -41.240684 6.283384 0.741022 -6.285550 -7.004410 26.513173 -5.346739 -5.516679 42.117876 12.825299 10.613526 -108.870892 61.141663 -74.198025 6.453800 11.149738 14.807879 
1.901807 0.076409 0.977418 -87.274922 -1.156440 93.949433 -5.906809 -0.023394 6.200807 -4.636513 -10.280265 8.737965 8.568623 5.882766 -19.043124 0.000000 -0.000000 0.000000 -1.535709 -0.677745 -33.355077 0.923758 -11.840776 9.580638 7.376643 -9.550172 1.265521 0.000000 -0.000000 0.000000 2.816502 -4.039502 12.626043 4.183623 -3.690456 0.789377 0.782890 -3.628728 2.993949 0.241450 7.799846 -2.947317 -4.973540 2.791605 8.840813 -21.964513 2.096067 1.130256 -52.987632 -8.051217 8.418935 11.432612 -43.092043 6.396324 3.492214 -6.665941 -7.330345 26.275947 -1.985856 -3.498195 42.659317 13.578292 12.006545 -88.283322 66.138674 -51.963278 4.864450 10.992078 20.631256 
1.864193 0.076957 0.970594 -85.234656 -1.369872 94.416570 -5.407241 0.263395 7.688952 -4.851534 -11.848488 9.848400 7.575292 5.264149 -20.066004 0.000000 -0.000000 0.000000 -1.064731 -1.613671 -32.813564 -0.020364 -12.220379 4.160358 8.766279 -9.099416 -1.015795 0.000000 -0.000000 0.000000 2.875588 -4.129657 12.507014 4.065759 -3.588847 -0.085133 1.265007 -3.724378 2.583768 0.201630 7.067007 -2.899866 -4.454800 1.673103 9.673904 -21.447999 0.592587 1.675347 -53.612020 -10.078327 9.864558 11.615757 -44.128799 7.491448 2.984223 -7.160846 -7.729386 26.675802 0.274336 -2.267727 42.417391 13.977793 12.448900 -61.214464 63.710702 -26.527777 5.286303 9.962972 20.411132 
1.824267 0.077498 0.966406 -83.245541 -0.966495 94.390586 -4.319904 -0.320603 8.909581 -5.250651 -13.378438 12.916551 5.356191 5.319599 -19.914940 0.000000 -0.000000 0.000000 -1.179293 -1.228071 -33.122296 -0.157817 -12.733639 7.419404 7.358709 -10.326821 -0.747866 0.000000 -0.000000 0.000000 3.388638 -4.767043 12.310268 4.423611 -3.043462 0.055208 1.545192 -3.573771 2.067886 0.376476 5.986210 -3.665512 -4.726571 0.377384 10.927225 -21.456225 -0.262216 1.559041 -54.636229 -11.758092 11.413800 12.251930 -44.845872 8.321574 0.259950 -7.513472 -8.303583 27.323720 2.332448 -1.391278 41.515820 15.282757 12.247116 -42.143172 55.116313 -10.468834 7.867223 7.999745 18.603445 
1.781882 0.078844 0.967311 -83.044350 -0.283582 94.202899 -3.548809 -0.904293 9.604866 -6.015752 -14.635540 17.322661 3.017300 5.424923 -17.658358 0.000000 -0.000000 0.000000 -1.113544 0.881911 -33.871025 -0.744022 -11.901949 13.393354 5.594001 -9.591266 5.477120 0.000000 -0.000000 0.000000 4.085430 -5.389456 12.620821 4.708112 -1.606648 0.306915 1.745151 -2.967661 1.195041 0.071912 4.684855 -4.330260 -5.153183 0.112038 11.553127 -22.378948 -0.109838 1.107308 -55.165136 -12.023760 12.619286 12.729813 -45.935108 8.482091 -3.217983 -7.181171 -8.993384 27.714054 4.027442 -0.633318 40.823052 16.564847 11.609287 -32.135826 44.592101 -7.591254 11.327893 4.493278 9.347378 
1.736416 0.080549 0.972189 -83.907078 0.444793 93.503213 -2.773030 -0.614203 8.987261 -7.349242 -14.587936 24.436586 -0.998324 4.539243 -11.251014 0.000000 -0.000000 0.000000 -0.665988 3.330149 -33.338763 -1.256511 -10.330669 18.150135 2.601719 -10.812300 5.028306 0.000000 -0.000000 0.000000 4.744231 -5.725467 12.996662 4.954599 -0.317468 0.686782 1.655762 -2.558621 0.631488 -0.013329 4.029287 -4.108680 -5.207543 0.263675 11.540990 -23.562041 0.451222 1.093679 -55.181020 -11.221061 13.227284 13.788409 -46.505056 6.928025 -1.516835 -7.345101 -9.714110 27.764370 5.372094 -0.124225 41.591501 17.295046 9.997994 -25.638805 32.172509 -12.476283 10.294377 3.982615 -2.644077 
1.689805 0.083643 0.978611 -84.777756 0.718517 92.599638 -1.959784 -0.763923 6.105234 -10.231219 -13.739575 33.963506 -6.009190 2.490096 -0.062210 0.000000 -0.000000 0.000000 0.779870 3.661489 -30.728021 -1.162932 -8.949865 20.259615 -0.741186 -9.966841 3.720650 0.000000 -0.000000 0.000000 4.797807 -5.070608 12.561466 5.378409 -0.226177 1.714681 1.478337 -2.550349 0.400367 0.351554 3.932541 -3.421394 -5.145504 -0.006946 11.366931 -24.318510 1.239248 1.119085 -54.936821 -9.707815 13.556688 14.130135 -46.531239 6.070015 0.298739 -6.804616 -10.940459 28.393968 5.740113 0.239567 42.576556 17.987956 6.963646 -21.575645 19.995740 -21.471712 4.999666 4.467596 -12.525009 
1.645804 0.086083 0.984440 -85.299972 0.890698 92.620151 -1.583602 -2.836733 0.325787 -12.712197 -11.442063 43.687622 -10.080472 0.124942 12.274875 0.000000 -0.000000 0.000000 1.474887 5.253099 -28.014520 -0.603665 -8.182196 20.622404 -4.052375 -11.787908 1.183761 0.000000 -0.000000 0.000000 4.584894 -4.400293 11.133728 6.169930 -0.647871 2.029992 1.155174 -2.571723 0.738376 0.147198 3.235109 -2.973657 -4.450637 0.329771 12.404025 -24.664459 2.275930 1.565500 -54.817305 -8.284360 13.449325 14.636254 -45.551263 5.686570 -2.817946 -6.754625 -11.116753 29.027132 5.151092 1.276301 43.976049 17.938986 4.468311 -21.934233 12.231789 -29.478896 2.004897 3.716389 -17.132507 
1.603094 0.087944 0.991356 -86.077649 0.867608 92.167801 -1.605229 -3.940915 -5.079112 -15.842372 -9.900444 52.501743 -6.601320 0.303750 13.172458 0.000000 -0.000000 0.000000 2.412654 5.295099 -24.919404 -0.111403 -6.930199 21.340152 -5.220232 -12.491099 -1.764125 0.000000 -0.000000 0.000000 4.051876 -3.452535 11.300065 6.642966 -0.835941 1.053941 0.958226 -2.627715 1.712673 0.500078 3.271055 -3.225666 -4.560309 0.403306 12.980162 -25.254110 4.241065 1.857994 -53.633052 -7.237315 13.029489 13.210065 -44.843059 7.406216 -0.449226 -5.829690 -11.783850 30.203154 2.912057 1.056274 45.469497 16.486591 3.908247 -23.942873 9.839155 -34.302153 -1.620709 2.328702 -21.246892 
